<?xml version="1.0" encoding="UTF-8"?><svg xmlns="http://www.w3.org/2000/svg" xmlns:xlink="http://www.w3.org/1999/xlink" width="240px" height="140px" viewBox="0 0 240 140" version="1.1">
 <!-- Generated by Pixelmator Pro 2.0.3 -->
 <path id="Путь" d="M101.07 20.49 L97.46 18.4 C96.9 18.073 96.697 17.363 97 16.79 L97.18 16.44 C97.324 16.162 97.578 15.957 97.88 15.872 98.183 15.787 98.508 15.829 98.78 15.99 L110.15 22.75 C110.508 22.957 110.746 23.321 110.79 23.73 Q110.84 24.15 110.73 24.51 110.55 25.05 109.99 25.02 107.46 24.89 105.61 23.18 C105.332 22.919 104.949 22.801 104.572 22.86 104.195 22.918 103.866 23.147 103.68 23.48 L101.55 27.3 Q100.83 28.59 102.13 29.28 107.35 32.04 109.53 33.51 C112.91 35.78 105.96 41.04 113.6 42.66 Q129.27 46 145.02 48.9 C150.12 49.84 149.97 52.65 148.73 56.81 Q148.36 58.05 147.01 58.11 C146.655 58.123 146.316 57.963 146.101 57.682 145.886 57.402 145.822 57.035 145.93 56.7 L146.9 53.66 C147 53.346 146.971 53.004 146.819 52.712 146.667 52.419 146.405 52.199 146.09 52.1 143.07 51.18 141.51 50.92 138.44 52.19 Q119.57 60.01 108.46 64.19 106.46 64.94 104.38 63.68 87.45 53.45 70.74 43.2 68.92 42.09 70.01 40.26 L77.71 27.27 C78.018 26.742 77.983 26.082 77.62 25.59 L67.45 12 C67.059 11.478 67.124 10.748 67.6 10.31 L76.53 2.02 C76.849 1.723 77.282 1.58 77.714 1.63 78.146 1.68 78.532 1.918 78.77 2.28 L87.2 14.98 C87.613 15.6 87.576 16.419 87.11 17.01 Q86.44 17.85 86.16 18.86 86 19.43 86.5 19.73 L97.76 26.48 Q98.63 26.99 99.11 26.1 L101.44 21.77 Q101.88 20.95 101.07 20.49 Z M78.91 22.81 C79.099 23.071 79.407 23.219 79.729 23.205 80.051 23.191 80.344 23.016 80.51 22.74 L84.22 16.52 C84.412 16.196 84.396 15.789 84.18 15.48 L77.71 6.03 C77.549 5.794 77.292 5.642 77.008 5.615 76.724 5.588 76.442 5.689 76.24 5.89 L71.18 10.91 C70.842 11.244 70.799 11.776 71.08 12.16 Z M128.5 48.56 Q119.99 46.91 111.5 45.22 107.87 44.5 107.14 40.41 C106.92 39.14 107.45 37.53 107.23 36.03 Q107.15 35.49 106.68 35.21 L85.45 22.37 C85.148 22.188 84.786 22.134 84.444 22.22 84.102 22.306 83.809 22.526 83.63 22.83 L73.08 40.65 C72.881 40.981 72.989 41.411 73.32 41.61 L106.03 61.15 C106.785 61.604 107.707 61.678 108.52 61.35 L135 50.71 C135.196 50.634 135.324 50.445 135.324 50.235 135.324 50.025 135.196 49.836 135 49.76 132.97 48.96 130.08 48.87 128.5 48.56 Z" fill="#ffffff" fill-opacity="1" stroke="none"/>
 <path id="Путь-1" d="M130.67 84.44 C134.15 77.64 139.85 71.24 144.91 65.65 145.156 65.375 145.507 65.216 145.877 65.212 146.248 65.208 146.604 65.36 146.86 65.63 152.45 71.64 161.01 81.05 162.87 88.68 166.51 103.53 150.06 115.52 137.06 107.46 129.2 102.58 126.44 92.71 130.67 84.44 Z M134.58 101.74 C141.55 110.21 155.12 108.6 159.28 98.21 163.56 87.51 153.5 76.75 146.65 69.42 146.464 69.231 146.17 69.202 145.95 69.35 142.17 71.97 138.13 77.79 135.65 81.73 131.31 88.62 129.11 95.09 134.58 101.74 Z" fill="#a52c2b" fill-opacity="1" stroke="none"/>
 <path id="Путь-2" d="M16.69 78.33 C12.79 82.59 12.02 89.21 14.58 94.41 18.64 102.67 31.58 103.54 36.14 95.46 Q36.99 93.95 38.72 93.95 L44.69 93.96 C45.105 93.963 45.492 94.174 45.719 94.522 45.946 94.87 45.984 95.308 45.82 95.69 Q39.57 109.89 24.76 109.34 C6.36 108.65 -2 86.56 9.82 73.07 20.05 61.39 41.03 64.82 45.68 80.29 Q46.06 81.55 44.75 81.51 L37.77 81.34 Q37.26 81.33 36.92 80.94 36.05 79.96 35.29 78.96 C30.63 72.81 21.47 73.12 16.69 78.33 Z" fill="#ffffff" fill-opacity="1" stroke="none"/>
 <path id="Путь-3" d="M91.7 79.13 C91.751 79.307 91.893 79.444 92.072 79.489 92.251 79.535 92.44 79.482 92.57 79.35 100.72 71.16 112.79 75.67 115.98 86.22 Q118.49 94.48 114.94 101.17 C110.75 109.09 99.69 112.59 93 105.48 92.857 105.337 92.675 105.242 92.48 105.21 Q91.68 105.06 91.68 105.75 91.73 114.06 91.61 122.07 C91.599 122.697 91.092 123.2 90.47 123.2 L84.29 123.23 Q83.09 123.24 83.09 122.04 L83.12 77.04 Q83.12 75.79 84.37 75.82 L90.46 75.92 Q91.71 75.94 91.55 77.18 91.43 78.18 91.7 79.13 Z M100.142 101.149 C102.377 101.114 104.506 100.129 106.061 98.411 107.615 96.693 108.467 94.382 108.429 91.988 108.391 89.593 107.467 87.31 105.86 85.642 104.253 83.974 102.094 83.056 99.858 83.091 97.623 83.126 95.494 84.111 93.939 85.829 92.385 87.547 91.533 89.858 91.571 92.252 91.609 94.647 92.533 96.93 94.14 98.598 95.747 100.266 97.906 101.184 100.142 101.149 Z" fill="#ffffff" fill-opacity="1" stroke="none"/>
 <path id="Путь-4" d="M68.02 84.76 L68.19 107.49 C68.193 107.736 68.097 107.972 67.924 108.147 67.751 108.322 67.516 108.42 67.27 108.42 L60.63 108.38 C60.126 108.38 59.715 107.974 59.71 107.47 L59.58 84.88 C59.577 84.636 59.478 84.403 59.303 84.232 59.129 84.062 58.894 83.967 58.65 83.97 L50.42 84.01 C50.174 84.013 49.938 83.917 49.763 83.744 49.588 83.571 49.49 83.336 49.49 83.09 L49.51 76.75 C49.51 76.506 49.607 76.272 49.779 76.099 49.952 75.927 50.186 75.83 50.43 75.83 L77.32 75.91 C77.813 75.915 78.214 76.308 78.23 76.8 L78.4 83.05 C78.405 83.299 78.31 83.54 78.134 83.717 77.959 83.894 77.719 83.993 77.47 83.99 L68.95 83.84 C68.704 83.837 68.468 83.933 68.293 84.106 68.118 84.279 68.02 84.514 68.02 84.76 Z" fill="#ffffff" fill-opacity="1" stroke="none"/>
 <path id="Путь-5" d="M183.25 108.39 L176.28 108.24 C176.081 108.237 175.891 108.156 175.753 108.013 175.614 107.871 175.537 107.679 175.54 107.48 L175.62 76.56 C175.62 76.361 175.699 76.17 175.84 76.03 175.98 75.889 176.171 75.81 176.37 75.81 L183.36 75.8 C183.561 75.8 183.753 75.88 183.894 76.023 184.035 76.166 184.113 76.359 184.11 76.56 L183.92 87.27 C183.917 87.471 183.995 87.664 184.136 87.807 184.277 87.95 184.469 88.03 184.67 88.03 L198.12 88.04 C198.321 88.04 198.513 87.96 198.654 87.817 198.795 87.674 198.873 87.481 198.87 87.28 L198.74 76.64 C198.74 76.23 199.07 75.895 199.48 75.89 L206.51 75.84 C206.709 75.84 206.9 75.919 207.04 76.06 207.181 76.2 207.26 76.391 207.26 76.59 L207.27 107.64 C207.27 107.839 207.191 108.03 207.05 108.17 206.91 108.311 206.719 108.39 206.52 108.39 L199.54 108.38 C199.341 108.38 199.15 108.301 199.01 108.16 198.869 108.02 198.79 107.829 198.79 107.63 L198.84 96.79 C198.84 96.591 198.761 96.4 198.62 96.26 198.48 96.119 198.289 96.04 198.09 96.04 L184.74 95.98 C184.538 95.977 184.343 96.057 184.2 96.2 184.056 96.343 183.977 96.538 183.98 96.74 L184.02 107.64 C184.02 107.842 183.938 108.036 183.793 108.178 183.648 108.319 183.452 108.395 183.25 108.39 Z" fill="#ffffff" fill-opacity="1" stroke="none"/>
 <path id="Путь-6" d="M222.46 84.6 L222.64 107.55 C222.643 107.725 222.576 107.894 222.454 108.02 222.332 108.145 222.165 108.217 221.99 108.22 L214.66 108.42 C214.482 108.425 214.308 108.358 214.18 108.234 214.052 108.11 213.98 107.939 213.98 107.76 L214 76.54 C214 76.175 214.295 75.88 214.66 75.88 L235.48 75.84 C235.655 75.84 235.823 75.91 235.947 76.033 236.07 76.157 236.14 76.325 236.14 76.5 L236.2 83.28 C236.2 83.455 236.13 83.623 236.007 83.747 235.883 83.87 235.715 83.94 235.54 83.94 L223.12 83.94 C222.755 83.94 222.46 84.236 222.46 84.6 Z" fill="#ffffff" fill-opacity="1" stroke="none"/>
 <path id="Путь-7" d="M136.69 93.29 C137.42 99.09 141.02 101.41 146.36 102.35 146.706 102.417 146.969 102.7 147.01 103.05 Q147.14 104.13 145.92 104.18 C139.74 104.44 134.32 99.05 134.52 92.86 134.525 92.69 134.598 92.529 134.722 92.413 134.845 92.297 135.01 92.235 135.18 92.24 L135.56 92.26 C136.137 92.284 136.613 92.718 136.69 93.29 Z" fill="#a52c2b" fill-opacity="1" stroke="none"/>
 <path id="Путь-8" d="M147.28 119.72 C157.89 112.82 162.6 129.89 152.94 132.19 Q149.92 132.91 148.04 131.05 145.41 128.46 146.29 132 146.95 134.67 146.57 137.39 146.43 138.42 145.39 138.42 L145.02 138.43 C144.846 138.43 144.679 138.36 144.557 138.236 144.435 138.112 144.367 137.944 144.37 137.77 L144.46 119.64 Q144.47 116.91 146.32 118.85 146.37 118.89 146.54 119.45 146.74 120.08 147.28 119.72 Z M152.023 130.203 C153.277 130.031 154.406 129.333 155.162 128.262 155.918 127.191 156.24 125.835 156.056 124.493 155.673 121.697 153.247 119.72 150.636 120.077 149.383 120.249 148.254 120.947 147.498 122.018 146.742 123.089 146.42 124.445 146.604 125.787 146.987 128.583 149.413 130.56 152.023 130.203 Z" fill="#ffffff" fill-opacity="1" stroke="none"/>
 <path id="Путь-9" d="M163.06 126.51 C162.53 129.83 168.36 130.62 170.4 129.29 Q171.57 128.53 171.71 128.47 175.69 126.81 173.02 130.2 C169.86 134.23 161.36 132.39 160.82 126.28 159.85 115.31 175.12 115.68 174.2 125.1 174.149 125.609 173.717 125.998 173.2 126 L163.72 125.96 Q163.15 125.95 163.06 126.51 Z M165.13 120.62 C164.925 120.677 164.741 120.792 164.6 120.95 L163.51 122.16 C163.212 122.485 163.135 122.955 163.313 123.358 163.49 123.761 163.889 124.021 164.33 124.02 L171.15 124.06 C171.64 124.064 172.074 123.747 172.219 123.279 172.364 122.811 172.186 122.304 171.78 122.03 L168.79 120.01 C168.52 119.827 168.184 119.773 167.87 119.86 Z" fill="#ffffff" fill-opacity="1" stroke="none"/>
 <path id="Путь-10" d="M179.04 124.49 C178.21 130.03 185.18 132.37 188.3 127.73 188.377 127.618 188.733 127.395 189.21 127.16 Q189.55 126.99 189.96 127.01 C190.135 127.015 190.297 127.107 190.391 127.256 190.485 127.404 190.5 127.589 190.43 127.75 Q188.32 132.76 183.01 132.12 C174.69 131.11 174.87 119.85 182.52 118.2 Q187.36 117.16 190.21 122.01 C190.349 122.249 190.303 122.553 190.1 122.74 L189.76 123.05 C189.591 123.206 189.364 123.283 189.135 123.263 188.907 123.242 188.697 123.124 188.56 122.94 185.24 118.55 179.79 119.43 179.04 124.49 Z" fill="#ffffff" fill-opacity="1" stroke="none"/>
 <path id="Путь-11" d="M203.66 117.7 L204.76 118.42 C204.942 118.539 205.006 118.775 204.91 118.97 L196.01 137.86 C195.957 137.972 195.859 138.056 195.74 138.09 L194.18 138.53 C194.018 138.574 193.845 138.519 193.738 138.39 193.631 138.261 193.608 138.082 193.68 137.93 L197.19 130.81 C197.249 130.694 197.253 130.559 197.2 130.44 L191.81 118.58 C191.75 118.452 191.758 118.302 191.83 118.18 191.902 118.059 192.029 117.98 192.17 117.97 L193.5 117.87 C193.681 117.86 193.849 117.964 193.92 118.13 L198.01 127.42 C198.078 127.578 198.233 127.68 198.405 127.68 198.577 127.68 198.732 127.578 198.8 127.42 L203.03 117.88 C203.082 117.765 203.182 117.679 203.303 117.644 203.425 117.61 203.555 117.63 203.66 117.7 Z" fill="#ffffff" fill-opacity="1" stroke="none"/>
 <path id="Путь-12" d="M209.73 131.03 L210.03 137.04 Q210.09 138.17 208.96 138.21 L208.55 138.23 C208.294 138.241 208.044 138.147 207.859 137.969 207.674 137.792 207.57 137.546 207.57 137.29 L207.52 118.99 C207.521 118.697 207.676 118.425 207.927 118.274 208.178 118.123 208.49 118.114 208.75 118.25 L210.22 119.03 C210.537 119.195 210.913 119.214 211.25 119.08 226.05 112.99 223.39 139.05 210.42 130.63 210.278 130.541 210.099 130.537 209.954 130.621 209.809 130.705 209.723 130.863 209.73 131.03 Z M214.708 130.244 C217.301 130.117 219.291 127.743 219.154 124.94 219.089 123.595 218.531 122.328 217.604 121.42 216.677 120.511 215.457 120.035 214.212 120.096 211.619 120.223 209.629 122.597 209.766 125.4 209.831 126.745 210.389 128.012 211.316 128.92 212.243 129.829 213.463 130.305 214.708 130.244 Z" fill="#ffffff" fill-opacity="1" stroke="none"/>
 <path id="Путь-13" d="M233.78 121.24 C228.3 116.84 222.83 125.47 228.05 129.41 230.8 131.48 233.67 129.82 235.53 127.29 Q235.93 126.74 236.88 126.99 C237.126 127.058 237.284 127.297 237.25 127.55 236.73 131.56 231.56 132.97 228.41 131.84 224.22 130.32 222.65 125.51 224.61 121.63 227.2 116.48 234.82 116.98 237.32 122.23 237.41 122.423 237.398 122.649 237.288 122.832 237.177 123.014 236.983 123.13 236.77 123.14 235.57 123.2 234.62 121.91 233.78 121.24 Z" fill="#ffffff" fill-opacity="1" stroke="none"/>
</svg>