<?xml version="1.0" encoding="UTF-8" standalone="no"?><!DOCTYPE svg PUBLIC "-//W3C//DTD SVG 1.1//EN" "http://www.w3.org/Graphics/SVG/1.1/DTD/svg11.dtd"><svg xmlns="http://www.w3.org/2000/svg" version="1.1" viewBox="0.00 0.00 327.00 251.00">
<path fill="#264da1" d="   M 139.07 60.49   L 135.46 58.40   A 1.21 1.21 0.0 0 1 135.00 56.79   L 135.18 56.44   A 1.15 1.14 29.2 0 1 136.78 55.99   L 148.15 62.75   A 1.30 1.29 12.1 0 1 148.79 63.73   Q 148.84 64.15 148.73 64.51   Q 148.55 65.05 147.99 65.02   Q 145.46 64.89 143.61 63.18   A 1.24 1.24 0.0 0 0 141.68 63.48   L 139.55 67.30   Q 138.83 68.59 140.13 69.28   Q 145.35 72.04 147.53 73.51   C 150.91 75.78 143.96 81.04 151.60 82.66   Q 167.27 86.00 183.02 88.90   C 188.12 89.84 187.97 92.65 186.73 96.81   Q 186.36 98.05 185.01 98.11   A 1.09 1.08 7.7 0 1 183.93 96.70   L 184.90 93.66   A 1.24 1.24 0.0 0 0 184.09 92.10   C 181.07 91.18 179.51 90.92 176.44 92.19   Q 157.57 100.01 146.46 104.19   Q 144.46 104.94 142.38 103.68   Q 125.45 93.45 108.74 83.20   Q 106.92 82.09 108.01 80.26   L 115.71 67.27   A 1.53 1.53 0.0 0 0 115.62 65.59   L 105.45 52.00   A 1.27 1.26 50.3 0 1 105.60 50.31   L 114.53 42.02   A 1.48 1.47 -38.2 0 1 116.77 42.28   L 125.20 54.98   A 1.74 1.72 -42.8 0 1 125.11 57.01   Q 124.44 57.85 124.16 58.86   Q 124.00 59.43 124.50 59.73   L 135.76 66.48   Q 136.63 66.99 137.11 66.10   L 139.44 61.77   Q 139.88 60.95 139.07 60.49   Z   M 116.91 62.81   A 0.96 0.96 0.0 0 0 118.51 62.74   L 122.22 56.52   A 0.96 0.96 0.0 0 0 122.18 55.48   L 115.71 46.03   A 0.96 0.96 0.0 0 0 114.24 45.89   L 109.18 50.91   A 0.96 0.96 0.0 0 0 109.08 52.16   L 116.91 62.81   Z   M 166.50 88.56   Q 157.99 86.91 149.50 85.22   Q 145.87 84.50 145.14 80.41   C 144.92 79.14 145.45 77.53 145.23 76.03   Q 145.15 75.49 144.68 75.21   L 123.45 62.37   A 1.32 1.32 0.0 0 0 121.63 62.83   L 111.08 80.65   A 0.70 0.70 0.0 0 0 111.32 81.61   L 144.03 101.15   A 2.81 2.79 49.4 0 0 146.52 101.35   L 173.00 90.71   A 0.51 0.51 0.0 0 0 173.00 89.76   C 170.97 88.96 168.08 88.87 166.50 88.56   Z"/>
<path fill="#a52c2b" d="   M 168.67 124.44   C 172.15 117.64 177.85 111.24 182.91 105.65   A 1.33 1.32 44.3 0 1 184.86 105.63   C 190.45 111.64 199.01 121.05 200.87 128.68   C 204.51 143.53 188.06 155.52 175.06 147.46   C 167.20 142.58 164.44 132.71 168.67 124.44   Z   M 172.58 141.74   C 179.55 150.21 193.12 148.60 197.28 138.21   C 201.56 127.51 191.50 116.75 184.65 109.42   A 0.55 0.55 0.0 0 0 183.95 109.35   C 180.17 111.97 176.13 117.79 173.65 121.73   C 169.31 128.62 167.11 135.09 172.58 141.74   Z"/>
<path fill="#264da1" d="   M 54.69 118.33   C 50.79 122.59 50.02 129.21 52.58 134.41   C 56.64 142.67 69.58 143.54 74.14 135.46   Q 74.99 133.95 76.72 133.95   L 82.69 133.96   A 1.24 1.24 0.0 0 1 83.82 135.69   Q 77.57 149.89 62.76 149.34   C 44.36 148.65 36.00 126.56 47.82 113.07   C 58.05 101.39 79.03 104.82 83.68 120.29   Q 84.06 121.55 82.75 121.51   L 75.77 121.34   Q 75.26 121.33 74.92 120.94   Q 74.05 119.96 73.29 118.96   C 68.63 112.81 59.47 113.12 54.69 118.33   Z"/>
<path fill="#264da1" d="   M 129.70 119.13   A 0.52 0.52 0.0 0 0 130.57 119.35   C 138.72 111.16 150.79 115.67 153.98 126.22   Q 156.49 134.48 152.94 141.17   C 148.75 149.09 137.69 152.59 131.00 145.48   A 0.98 0.94 71.3 0 0 130.48 145.21   Q 129.68 145.06 129.68 145.75   Q 129.73 154.06 129.61 162.07   A 1.15 1.14 -89.5 0 1 128.47 163.20   L 122.29 163.23   Q 121.09 163.24 121.09 162.04   L 121.12 117.04   Q 121.12 115.79 122.37 115.82   L 128.46 115.92   Q 129.71 115.94 129.55 117.18   Q 129.43 118.18 129.70 119.13   Z   M 138.1418 141.1489   A 9.03 8.43 89.1 0 0 146.4290 131.9876   A 9.03 8.43 89.1 0 0 137.8582 123.0911   A 9.03 8.43 89.1 0 0 129.5710 132.2524   A 9.03 8.43 89.1 0 0 138.1418 141.1489   Z"/>
<path fill="#264da1" d="   M 106.02 124.76   L 106.19 147.49   A 0.92 0.92 0.0 0 1 105.27 148.42   L 98.63 148.38   A 0.92 0.92 0.0 0 1 97.71 147.47   L 97.58 124.88   A 0.92 0.92 0.0 0 0 96.65 123.97   L 88.42 124.01   A 0.92 0.92 0.0 0 1 87.49 123.09   L 87.51 116.75   A 0.92 0.92 0.0 0 1 88.43 115.83   L 115.32 115.91   A 0.92 0.92 0.0 0 1 116.23 116.80   L 116.40 123.05   A 0.92 0.92 0.0 0 1 115.47 123.99   L 106.95 123.84   A 0.92 0.92 0.0 0 0 106.02 124.76   Z"/>
<path fill="#264da1" d="   M 221.25 148.39   L 214.28 148.24   A 0.75 0.75 0.0 0 1 213.54 147.48   L 213.62 116.56   A 0.75 0.75 0.0 0 1 214.37 115.81   L 221.36 115.80   A 0.75 0.75 0.0 0 1 222.11 116.56   L 221.92 127.27   A 0.75 0.75 0.0 0 0 222.67 128.03   L 236.12 128.04   A 0.75 0.75 0.0 0 0 236.87 127.28   L 236.74 116.64   A 0.75 0.75 0.0 0 1 237.48 115.89   L 244.51 115.84   A 0.75 0.75 0.0 0 1 245.26 116.59   L 245.27 147.64   A 0.75 0.75 0.0 0 1 244.52 148.39   L 237.54 148.38   A 0.75 0.75 0.0 0 1 236.79 147.63   L 236.84 136.79   A 0.75 0.75 0.0 0 0 236.09 136.04   L 222.74 135.98   A 0.75 0.75 0.0 0 0 221.98 136.74   L 222.02 147.64   A 0.75 0.75 0.0 0 1 221.25 148.39   Z"/>
<path fill="#264da1" d="   M 260.46 124.60   L 260.64 147.55   A 0.66 0.66 0.0 0 1 259.99 148.22   L 252.66 148.42   A 0.66 0.66 0.0 0 1 251.98 147.76   L 252.00 116.54   A 0.66 0.66 0.0 0 1 252.66 115.88   L 273.48 115.84   A 0.66 0.66 0.0 0 1 274.14 116.50   L 274.20 123.28   A 0.66 0.66 0.0 0 1 273.54 123.94   L 261.12 123.94   A 0.66 0.66 0.0 0 0 260.46 124.60   Z"/>
<path fill="#a52c2b" d="   M 174.69 133.29   C 175.42 139.09 179.02 141.41 184.36 142.35   A 0.81 0.81 0.0 0 1 185.01 143.05   Q 185.14 144.13 183.92 144.18   C 177.74 144.44 172.32 139.05 172.52 132.86   A 0.64 0.64 0.0 0 1 173.18 132.24   L 173.56 132.26   A 1.19 1.19 0.0 0 1 174.69 133.29   Z"/>
<path fill="#264da1" d="   M 185.28 159.72   C 195.89 152.82 200.60 169.89 190.94 172.19   Q 187.92 172.91 186.04 171.05   Q 183.41 168.46 184.29 172.00   Q 184.95 174.67 184.57 177.39   Q 184.43 178.42 183.39 178.42   L 183.02 178.43   A 0.65 0.65 0.0 0 1 182.37 177.77   L 182.46 159.64   Q 182.47 156.91 184.32 158.85   Q 184.37 158.89 184.54 159.45   Q 184.74 160.08 185.28 159.72   Z   M 190.0235 170.2027   A 5.11 4.77 82.2 0 0 194.0559 164.4926   A 5.11 4.77 82.2 0 0 188.6365 160.0773   A 5.11 4.77 82.2 0 0 184.6041 165.7874   A 5.11 4.77 82.2 0 0 190.0235 170.2027   Z"/>
<path fill="#264da1" d="   M 201.06 166.51   C 200.53 169.83 206.36 170.62 208.40 169.29   Q 209.57 168.53 209.71 168.47   Q 213.69 166.81 211.02 170.20   C 207.86 174.23 199.36 172.39 198.82 166.28   C 197.85 155.31 213.12 155.68 212.20 165.10   A 1.01 1.00 2.8 0 1 211.20 166.00   L 201.72 165.96   Q 201.15 165.95 201.06 166.51   Z   M 203.13 160.62   A 1.11 1.11 0.0 0 0 202.60 160.95   L 201.51 162.16   A 1.11 1.11 0.0 0 0 202.33 164.02   L 209.15 164.06   A 1.11 1.11 0.0 0 0 209.78 162.03   L 206.79 160.01   A 1.11 1.11 0.0 0 0 205.87 159.86   L 203.13 160.62   Z"/>
<path fill="#264da1" d="   M 217.04 164.49   C 216.21 170.03 223.18 172.37 226.30 167.73   A 1.38 0.18 -24.7 0 1 227.21 167.16   Q 227.55 166.99 227.96 167.01   A 0.53 0.53 0.0 0 1 228.43 167.75   Q 226.32 172.76 221.01 172.12   C 212.69 171.11 212.87 159.85 220.52 158.20   Q 225.36 157.16 228.21 162.01   A 0.59 0.59 0.0 0 1 228.10 162.74   L 227.76 163.05   A 0.81 0.81 0.0 0 1 226.56 162.94   C 223.24 158.55 217.79 159.43 217.04 164.49   Z"/>
<path fill="#264da1" d="   M 241.66 157.70   L 242.76 158.42   A 0.43 0.43 0.0 0 1 242.91 158.97   L 234.01 177.86   A 0.43 0.43 0.0 0 1 233.74 178.09   L 232.18 178.53   A 0.43 0.43 0.0 0 1 231.68 177.93   L 235.19 170.81   A 0.43 0.43 0.0 0 0 235.20 170.44   L 229.81 158.58   A 0.43 0.43 0.0 0 1 230.17 157.97   L 231.50 157.87   A 0.43 0.43 0.0 0 1 231.92 158.13   L 236.01 167.42   A 0.43 0.43 0.0 0 0 236.80 167.42   L 241.03 157.88   A 0.43 0.43 0.0 0 1 241.66 157.70   Z"/>
<path fill="#264da1" d="   M 247.73 171.03   L 248.03 177.04   Q 248.09 178.17 246.96 178.21   L 246.55 178.23   A 0.94 0.94 0.0 0 1 245.57 177.29   L 245.52 158.99   A 0.84 0.84 0.0 0 1 246.75 158.25   L 248.22 159.03   A 1.25 1.23 -41.8 0 0 249.25 159.08   C 264.05 152.99 261.39 179.05 248.42 170.63   A 0.45 0.45 0.0 0 0 247.73 171.03   Z   M 252.7082 170.2439   A 5.08 4.70 87.2 0 0 257.1544 164.9404   A 5.08 4.70 87.2 0 0 252.2118 160.0961   A 5.08 4.70 87.2 0 0 247.7656 165.3996   A 5.08 4.70 87.2 0 0 252.7082 170.2439   Z"/>
<path fill="#264da1" d="   M 271.78 161.24   C 266.30 156.84 260.83 165.47 266.05 169.41   C 268.80 171.48 271.67 169.82 273.53 167.29   Q 273.93 166.74 274.88 166.99   A 0.51 0.51 0.0 0 1 275.25 167.55   C 274.73 171.56 269.56 172.97 266.41 171.84   C 262.22 170.32 260.65 165.51 262.61 161.63   C 265.20 156.48 272.82 156.98 275.32 162.23   A 0.64 0.64 0.0 0 1 274.77 163.14   C 273.57 163.20 272.62 161.91 271.78 161.24   Z"/>
</svg>